<svg width="1024" height="1024" viewBox="0 0 1024 1024" fill="none" xmlns="http://www.w3.org/2000/svg">
  <defs>
    <linearGradient id="paint0_linear" x1="0" y1="0" x2="1024" y2="1024" gradientUnits="userSpaceOnUse">
      <stop stop-color="#22D3EE"/>
      <stop offset="0.5" stop-color="#3B82F6"/>
      <stop offset="1" stop-color="#4338CA"/>
    </linearGradient>
    <linearGradient id="paint1_linear" x1="0" y1="0" x2="512" y2="512" gradientUnits="userSpaceOnUse">
      <stop stop-color="white" stop-opacity="0.4"/>
      <stop offset="1" stop-color="white" stop-opacity="0"/>
    </linearGradient>
  </defs>
  
  <!-- Main Rounded Background (28% border radius approx) -->
  <rect x="0" y="0" width="1024" height="1024" rx="286" fill="url(#paint0_linear)" />
  
  <!-- Glossy Reflection -->
  <rect x="0" y="0" width="1024" height="1024" rx="286" fill="url(#paint1_linear)" />
  
  <!-- Inner Glow/Border -->
  <rect x="10" y="10" width="1004" height="1004" rx="276" stroke="white" stroke-opacity="0.3" stroke-width="20" fill="none" />
  
  <!-- Bell Icon (Simplified Path) -->
  <path d="M512 180C390 180 290 280 290 400V600L220 720H804L734 600V400C734 280 634 180 512 180Z" fill="white" filter="drop-shadow(0px 0px 40px rgba(255, 255, 255, 0.5))" />
  <path d="M430 760C430 804 466 840 512 840C558 840 594 804 594 760H430Z" fill="white" />
  
  <!-- Star Accent -->
  <circle cx="734" cy="290" r="70" fill="#F43F5E" stroke="white" stroke-width="15" />
  <path d="M734 250L748 280H780L755 300L765 330L734 310L703 330L713 300L688 280H720L734 250Z" fill="white" />
  
  <!-- Bottom Shadow -->
  <rect x="0" y="682" width="1024" height="342" rx="0" fill="url(#paint2_linear)" fill-opacity="0.2" />
  <defs>
    <linearGradient id="paint2_linear" x1="512" y1="1024" x2="512" y2="682" gradientUnits="userSpaceOnUse">
      <stop stop-color="black"/>
      <stop offset="1" stop-color="black" stop-opacity="0"/>
    </linearGradient>
  </defs>
</svg>
